PathFileType	4	(X/Y/Z)	/home/abdul/Desktop/myosuite/custom_workspace/IK/output/S13_12_2.trc
DataRate	CameraRate	NumFrames	NumMarkers	Units	OrigDataRate	OrigDataStartFrame	OrigNumFrames
200.0	200.0	39	3	mm	200.0	702	1403
Frame#	Time	V_Shoulder			V_Elbow			V_Wrist		
		X1	Y1	Z1	X2	Y2	Z2	X3	Y3	Z3

702	3.505	-84.07327987830176	618.0798570115794	339.43997971291196	-208.75634673053293	477.8417614464417	41.5447135746112	-98.76622213247911	310.45697586095457	207.45663689236943
703	3.51	-84.08653565237972	617.9904080527587	339.39120878921796	-208.71109141143796	478.10633683844844	41.2329207904734	-99.12547902322297	308.4317577789249	205.4036311022877
704	3.515	-84.09897539616013	617.8994583401055	339.34318033312815	-208.66053223875124	478.3582308767351	40.927611724922	-99.48465179624868	306.4122722186463	203.34488144696277
705	3.52	-84.11058058979123	617.8070268286905	339.2959207658505	-208.60459203352644	478.59712084840464	40.628986151971425	-99.84335774671783	304.3999658743201	201.28180178026832
706	3.525	-84.1213333242221	617.7131341076802	339.24945532740145	-208.5431983065437	478.8227076113885	40.337228088720934	-100.20121269133459	302.3962561697404	199.21580068969436
707	3.53	-84.13121632533172	617.6178024055939	339.2038080486927	-208.47628339619513	479.03471618528454	40.05250559419248	-100.55783187983715	300.4025284264939	197.14827855742163
708	3.535	-84.14021297688328	617.5210555923962	339.1590017263986	-208.4037846061447	479.2328962756186	39.77497062043364	-100.91283091609137	298.4201331574338	195.08062466217223
709	3.54	-84.14830734227614	617.4229191783905	339.1150579006331	-208.3256443423249	479.4170227302078	39.5047589155858	-101.2658266852692	296.450383494001	193.01421433129624
710	3.545	-84.15548418507213	617.3234203098905	339.07199683545133	-208.24181024879314	479.5868959265837	39.24198997839621	-101.6164382835139	294.4945527553621	190.95040615231852
711	3.55	-84.16172898827729	617.2225877616437	339.0298375021869	-208.15223534193416	479.74234208970756	38.986767063436915	-101.96428794643278	292.5538721666934	188.89053925289082
712	3.555	-84.16702797236367	617.1204519260021	338.98859756562257	-208.05687814245795	479.8832135394945	38.739177236085546	-102.30900197271885	290.62952873327185	186.83593065777842
713	3.56	-84.17136811202046	617.0170447988307	338.9482933729869	-207.95570280461305	480.0093888679385	38.49929147612333	-102.65021163918333	288.72266327633304	184.78787273115807
714	3.565	-84.17473715162731	616.9123999621598	338.9089399457587	-207.84867924200375	480.1207730459092	38.26716482861595	-102.98755410348488	286.83436863593556	182.74763071211632
715	3.57	-84.17712361944673	616.8065525635935	338.87055097425355	-207.73578324937566	480.21729745996333	38.04283660056332	-103.32067329086621	284.96568804532654	180.71644035081633
716	3.575	-84.17851684053649	616.6995392924929	338.833138814959	-207.61699661971176	480.29891987978084	37.8263306016363	-103.64922076125649	283.11761368054215	178.69550565235238
717	3.58	-84.17890694838597	616.5913983529612	338.7967144905752	-207.49230725596277	480.36562435709413	37.617655427162184	-103.97285655316728	281.2910853882065	176.6859967348303
718	3.585	-84.17828489528502	616.4821694336673	338.7612876927135	-207.36170927672185	480.4174210572309	37.4168047813776	-104.29125000090204	279.486989593708	174.6890478077097
719	3.59	-84.17664246143626	616.3718936745514	338.7268667871943	-207.22520311514276	480.45434602463104	37.223757838836995	-104.6040805217113	277.7061583911468	172.70575527591643
720	3.595	-84.17397226282573	616.2606136304598	338.6934588218823	-207.08279561039743	480.47646088392696	37.03847964174869	-104.91103836966013	275.94936881566133	170.73717597468817
721	3.6	-84.17026775786948	616.1483732317738	338.66106953698744	-206.93450009096534	480.4838524783952	36.86092153090753	-105.21182535312872	274.217342297959	168.7843255395514
722	3.605	-84.1655232528572	616.0352177420905	338.6297033777557	-206.78033644905207	480.4766324477879	36.69102160780519	-105.50615551303866	272.5107443001009	166.84817691525228
723	3.61	-84.15973390621589	615.9211937130366	338.5993635094682	-206.6203312054425	480.4549367477438	36.528705225424645	-105.79375575909053	270.83018413082874	164.92965900687534
724	3.615	-84.15289573162009	615.8063489362884	338.57005183465964	-206.4545175641067	480.41892511315154	36.373885505166236	-106.07436646150342	269.17621493797697	163.0296554757884
725	3.62	-84.14500559997667	615.6907323928908	338.54176901246507	-206.28293545589437	480.3687804679962	36.226463877306955	-106.34774199597211	267.54933387478525	161.14900368245196
726	3.625	-84.13606124031507	615.5743941999649	338.5145144799965	-206.10563157067642	480.3047082843624	36.08633064236349	-106.61365123979252	265.94998243622615	159.28849377752965
727	3.63	-84.12606123961531	615.4573855549065	338.48828647564847	-205.92265937731815	480.2269358933921	35.953365550712405	-106.87187801735527	264.3785469607884	157.4488679421362
728	3.635	-84.11500504160828	615.3397586771817	338.4630820642297	-205.73407913090136	480.13571175110656	35.82743839781699	-107.12222149346539	262.8353592925118	155.6308197774636
729	3.64	-84.10289294458366	615.2215667478309	338.4388971638097	-205.53995786664808	480.0313046620897	35.70840963242023	-107.36449651321301	261.3206975974611	153.83499384343781
730	3.645	-84.08972609824316	615.1028638468008	338.41572657417333	-205.3403693800383	479.9140029641136	35.596130975085174	-107.59853388739383	259.83478732825483	152.06198534548128
731	3.65	-84.07550649963686	614.9837048882246	338.39356400676803	-205.13539419266004	479.78411367683634	35.49044604449936	-107.82418062275491	258.37780232973023	150.31233996789126
732	3.655	-84.06023698822169	614.8641455537828	338.3724021160308	-204.92511950337683	479.6419616177569	35.3911909890056	-108.04130009662256	256.94986607833926	148.58655385179566
733	3.66	-84.04392124008223	614.7442422242722	338.3522325319784	-204.7096391244517	479.48788848862944	35.29819512087952	-108.24977217574904	255.5510530474208	146.8850737151166
734	3.665	-84.02656376135334	614.6240519095237	338.3330458939453	-204.48905340232116	479.32225193556064	35.21128155094133	-108.44949327949425	254.18139019009988	145.20829711146365
735	3.67	-84.00816988088559	614.5036321768074	338.31483188535117	-204.26346912277228	479.1454245860075	35.130267821167756	-108.64037638773424	252.84085853120928	143.55657282438978
736	3.675	-83.98874574219352	614.3830410778698	338.297579269383	-204.0329994003384	478.95779306587883	35.054966533055676	-108.82235099415894	251.52939485933004	141.93020139298176
737	3.68	-83.96829829472705	614.2623370747511	338.28127592547486	-203.79776355179337	478.7597569999167	34.98518596958427	-108.99536300588446	250.24689350979355	140.32943576432217
738	3.685	-83.94683528450615	614.1415789645316	338.26590888647	-203.5578869536909	478.55172799849174	34.920730708724335	-109.15937459056045	248.99320822928826	138.75448206795124
739	3.69	-83.92436524415777	614.0208258031589	338.2514643763526	-203.3135008839668	478.3341286338965	34.861402226552116	-109.31436397239648	247.76815411256325	137.2055005070818
740	3.695	-83.90089748239393	613.900136828513	338.2379278484361	-203.0647423476907	478.1073914091587	34.80699948813943	-109.4603251787641	246.57150960162122	135.68260636097267
